<svg id="SvgjsSvg1000" xmlns="http://www.w3.org/2000/svg" version="1.1" xmlns:xlink="http://www.w3.org/1999/xlink" xmlns:svgjs="http://svgjs.com/svgjs" width="165" height="136" viewBox="0 0 165 136"><title>devices icon</title><desc>Created with Avocode.</desc><defs id="SvgjsDefs1001"></defs><path id="SvgjsPath1007" d="M346.41 940C296.48 940 246.55 940 196.62000000000003 940C194.30000000000004 940 194.00000000000003 940.3 194.00000000000003 942.57C194.00000000000003 965.83 194.00000000000003 989.09 194.00000000000003 1012.35C194.00000000000003 1014.9 194.31000000000003 1015.21 196.88000000000002 1015.21C203.36 1015.21 209.85000000000002 1015.21 216.34000000000003 1015.21L216.34000000000003 1002.25L199.73000000000002 1002.25L199.73000000000002 947.38L343.36 947.38L343.36 1002.25L326.76 1002.25L326.76 1015.21C333.31 1015.21 339.86 1015.21 346.40999999999997 1015.21C348.71 1015.21 349.09999999999997 1014.83 349.09999999999997 1012.5500000000001C349.09999999999997 989.2400000000001 349.09999999999997 965.94 349.09999999999997 942.6400000000001C349.09999999999997 940.2900000000001 348.80999999999995 940.0000000000001 346.40999999999997 940.0000000000001 " fill="#36a9e1" fill-opacity="1" transform="matrix(1,0,0,1,-194,-940)"></path><path id="SvgjsPath1008" d="M286.68 1048.23L230.22 1048.23L230.22 995.08L314.37 995.08L314.37 1019.95L323.51 1019.95C323.5 1010.84 323.49 1001.73 323.46 992.62C323.45 991.38 322.97999999999996 990.02 322.34 988.94C320.85999999999996 986.45 318.33 986 315.60999999999996 986C286.72999999999996 986.02 257.84999999999997 986.01 228.96999999999997 986.01C228.40999999999997 986.01 227.83999999999997 986.04 227.27999999999997 986.09C223.41999999999996 986.45 221.03999999999996 989.02 221.03999999999996 992.86C221.03999999999996 1010.98 221.03999999999996 1029.1100000000001 221.03999999999996 1047.24L221.03999999999996 1048.97C220.41999999999996 1048.97 219.94999999999996 1048.97 219.48999999999995 1048.97C216.37999999999994 1048.98 213.25999999999996 1048.94 210.14999999999995 1049C208.28999999999994 1049.04 207.49999999999994 1050.43 208.31999999999994 1052.05C209.02999999999994 1053.45 209.86999999999995 1054.81 210.43999999999994 1056.26C211.02999999999994 1057.75 212.13999999999993 1058.45 213.56999999999994 1058.8C214.52999999999994 1059.03 215.51999999999992 1059.24 216.49999999999994 1059.24C239.88999999999993 1059.25 263.28 1059.25 286.67999999999995 1059.24Z " fill="#36a9e1" fill-opacity="1" transform="matrix(1,0,0,1,-194,-940)"></path><path id="SvgjsPath1009" d="M338.39 1065.08C332.96999999999997 1065.08 327.53999999999996 1065.08 322.11 1065.08C314.66 1065.08 307.2 1065.08 299.75 1065.08C298.7 1065.08 298.56 1064.9299999999998 298.56 1063.8899999999999C298.56 1052.06 298.56 1040.2299999999998 298.56 1028.3999999999999C298.56 1028.1999999999998 298.55 1027.9999999999998 298.59 1027.81C298.65999999999997 1027.48 298.85999999999996 1027.26 299.22999999999996 1027.24C299.40999999999997 1027.23 299.59 1027.23 299.77 1027.23C314.68 1027.23 329.59 1027.23 344.5 1027.23C344.66 1027.23 344.83 1027.23 344.99 1027.24C345.43 1027.25 345.65000000000003 1027.51 345.71000000000004 1027.91C345.73 1028.0500000000002 345.72 1028.2 345.72 1028.3400000000001C345.72 1032.0100000000002 345.72 1035.67 345.72 1039.3400000000001L354.27000000000004 1039.3400000000001C354.27000000000004 1035.0400000000002 354.27000000000004 1030.7500000000002 354.27000000000004 1026.45C354.27000000000004 1025.76 354.05 1025.1200000000001 353.65000000000003 1024.54C352.83000000000004 1023.37 351.64000000000004 1023 350.26000000000005 1023C331.51000000000005 1023.01 312.76000000000005 1023 294.02000000000004 1023C293.92 1023 293.82000000000005 1023 293.72 1023C291.57000000000005 1023.08 290 1024.51 290 1026.46C290 1039.5900000000001 290 1052.72 290 1065.8500000000001C290 1066.5500000000002 290.22 1067.19 290.63 1067.7600000000002C291.43 1068.9100000000003 292.6 1069.3000000000002 293.96999999999997 1069.3000000000002C303.35999999999996 1069.3000000000002 312.75 1069.3000000000002 322.14 1069.3000000000002C327.56 1069.3000000000002 332.97999999999996 1069.3000000000002 338.39 1069.3000000000002Z " fill="#36a9e1" fill-opacity="1" transform="matrix(1,0,0,1,-194,-940)"></path><path id="SvgjsPath1010" d="M345.18 1047.81L354.03000000000003 1047.81L354.03000000000003 1069.29L345.18 1069.29ZM349.61 1070.47C350.52000000000004 1070.47 351.27000000000004 1071.2 351.27000000000004 1072.09C351.26000000000005 1072.97 350.51000000000005 1073.7099999999998 349.61 1073.7099999999998C348.7 1073.7099999999998 347.95 1072.9699999999998 347.95 1072.0799999999997C347.95 1071.1899999999996 348.69 1070.4699999999998 349.61 1070.4699999999998ZM349.6 1045.43C349.16 1045.43 348.73 1045.44 348.29 1045.43C348.11 1045.43 347.98 1045.3200000000002 347.97 1045.16C347.96000000000004 1045.0500000000002 348.04 1044.92 348.11 1044.8200000000002C348.15000000000003 1044.7700000000002 348.27000000000004 1044.7500000000002 348.35 1044.7500000000002C349.18 1044.7500000000002 350.02000000000004 1044.7500000000002 350.85 1044.7500000000002C351.11 1044.7500000000002 351.27000000000004 1044.9000000000003 351.26000000000005 1045.1000000000001C351.26000000000005 1045.3000000000002 351.1 1045.43 350.84000000000003 1045.44C350.43 1045.44 350.01000000000005 1045.44 349.6 1045.44ZM346.78 1044.63C347.02 1044.63 347.2 1044.7900000000002 347.2 1045.0200000000002C347.2 1045.2600000000002 347.03 1045.4300000000003 346.78999999999996 1045.4300000000003C346.56999999999994 1045.4400000000003 346.36999999999995 1045.2500000000002 346.35999999999996 1045.0400000000002C346.35999999999996 1044.8200000000002 346.54999999999995 1044.63 346.78 1044.63ZM341 1058.55C341 1063.21 341 1067.87 341.01 1072.54C341.01 1073.5 341.46 1074.24 342.3 1074.74C342.74 1075 343.22 1075.1 343.74 1075.1C347.65000000000003 1075.1 351.56 1075.09 355.47 1075.11C357 1075.11 358.22 1073.9699999999998 358.22 1072.4799999999998C358.22 1063.1899999999998 358.22 1053.9099999999999 358.22 1044.62C358.22 1043.1699999999998 357.08000000000004 1042.02 355.61 1042.01C351.61 1042 347.61 1042 343.62 1042.01C342.12 1042.02 341 1043.16 341 1044.64C341 1049.2800000000002 341 1053.91 341 1058.5500000000002Z " fill="#36a9e1" fill-opacity="1" transform="matrix(1,0,0,1,-194,-940)"></path></svg>